<svg xmlns="http://www.w3.org/2000/svg" viewBox="0 0 276 291" width="276" height="291">
  <g transform="translate(-999 -590)">
    <path xmlns:xlink="http://www.w3.org/1999/xlink" d="M1270.5,640.9l-19.9-15.4l-18.5-14.8c-1.8-1.4-4-2.2-6.2-2.2h-178c-2.3,0-4.5,0.8-6.2,2.2l-38.5,30.8   c-2.4,1.9-3.8,4.8-3.8,7.8v190.1c0,3,1.4,5.9,3.8,7.8l38.5,30.8c1.8,1.4,4,2.2,6.2,2.2h178c2.3,0,4.5-0.8,6.2-2.2l38.5-30.8   c2.4-1.9,3.8-4.8,3.8-7.8l0.1-190.6C1274.4,645.7,1272.9,642.8,1270.5,640.9z" style="fill:#290050;"/>
    <path xmlns:xlink="http://www.w3.org/1999/xlink" d="M1270.5,622.5l-19.9-15.4l-18.5-14.8c-1.8-1.4-4-2.2-6.2-2.2h-178c-2.3,0-4.5,0.8-6.2,2.2l-38.5,30.8   c-2.4,1.9-3.8,4.8-3.8,7.8V821c0,3,1.4,5.9,3.8,7.8l38.5,30.8c1.8,1.4,4,2.2,6.2,2.2h178c2.3,0,4.5-0.8,6.2-2.2l38.5-30.8   c2.4-1.9,3.8-4.8,3.8-7.8l0.1-190.6C1274.4,627.4,1272.9,624.4,1270.5,622.5z" style="fill:#FFFFFF;"/>
    <g xmlns:xlink="http://www.w3.org/1999/xlink">
		<polygon points="1225.8,600.1 1136.8,600.1 1047.7,600.1 1009.3,630.9 1009.3,716.6 1009.3,735.3 1009.3,821     1047.7,851.8 1136.8,851.8 1225.8,851.8 1264.2,821 1264.2,735.3 1264.2,716.6 1264.2,630.9   " style="fill:#1EA84A;"/>
		<polygon points="1213.2,618 1136.8,618 1060.3,618 1027.3,644.4 1027.3,717.9 1027.3,734 1027.3,807.5 1060.3,834     1136.8,834 1213.2,834 1246.2,807.5 1246.2,734 1246.2,717.9 1246.2,644.4   " style="fill:#8DC74B;"/>
		<polygon points="1225.4,600.3 1213.1,618.4 1246.5,644.2 1264.4,630.5   " style="fill:#6EBE44;"/>
		<polygon points="1187.3,654.4 1213.1,618.4 1246.5,644.2 1209.2,671.9   " style="fill:#98CB5E;"/>
		<polygon points="1047.7,600.1 1060.3,618 1027.3,644.4 1009.3,630.9   " style="fill:#CDDE66;"/>
		<polygon points="1060.3,618 1086.2,654.4 1064.3,671.9 1027.3,644.4   " style="fill:#D7E376;"/>
		<polygon points="1047.7,600.1 1060.3,618 1213.1,618.4 1225.4,600.3   " style="fill:#66BC46;"/>
		<polygon points="1027.3,644.4 1027.3,807.5 1064.3,780 1064.3,671.9   " style="fill:#68BD45;"/>
		<polygon points="1209.2,671.9 1209.2,780 1246.2,807.5 1246.5,644.2   " style="fill:#3AAE49;"/>
		<polygon points="1064.3,780 1086.2,797.5 1060.3,834 1027.3,807.5   " style="fill:#CCDF77;"/>
		<polygon points="1187.3,797.5 1213.2,834 1246.2,807.5 1209.2,780   " style="fill:#81C45A;"/>
		<polygon points="1086.2,797.5 1187.3,797.5 1213.2,834 1060.3,834   " style="fill:#63BC46;"/>
		<polygon points="1264.4,630.5 1246.5,644.2 1246.2,807.5 1264.2,821   " style="fill:#36AF4A;"/>
		<polygon points="1213.2,834 1246.2,807.5 1264.2,821 1225.8,851.8   " style="fill:#39B54A;"/>
		<polygon points="1047.7,851.8 1060.3,834 1027.3,807.5 1009.3,821   " style="fill:#ACD25E;"/>
		<polygon points="1009.3,630.9 1009.3,821 1027.3,807.5 1027.3,644.4   " style="fill:#68BD45;"/>
		<polygon points="1187.3,654.4 1136.8,654.4 1086.2,654.4 1064.3,671.9 1064.3,720.6 1064.3,731.3 1064.3,780     1086.2,797.5 1136.8,797.5 1187.3,797.5 1209.2,780 1209.2,731.3 1209.2,720.6 1209.2,671.9   " style="fill:#A8D164;"/>
	</g>
  </g>
</svg>
