<svg xmlns="http://www.w3.org/2000/svg" viewBox="0 0 236 376" width="236" height="376" aria-label="Minimal obsidian gem (rectangle cut)">
  <g transform="translate(-1013 -107)">
    <path xmlns:xlink="http://www.w3.org/1999/xlink" d="M1019.2,423.7l107.5,57.9c1.5,0.8,3.1,1.2,4.7,1.2s3.3-0.4,4.7-1.2l107.5-57.9c3.2-1.7,5.3-5.1,5.3-8.8V193.3   c0-3.7-2-7.1-5.3-8.8l-107.5-57.9c-1.5-0.8-3.1-1.2-4.7-1.2s-3.3,0.4-4.7,1.2l-107.5,57.9c-3.2,1.7-5.3,5.1-5.3,8.8v221.6   C1014,418.5,1016,421.9,1019.2,423.7z" style="fill:#0b0b0c;"/>
    <path xmlns:xlink="http://www.w3.org/1999/xlink" d="M1019.2,405.3l107.5,57.9c1.5,0.8,3.1,1.2,4.7,1.2s3.3-0.4,4.7-1.2l107.5-57.9c3.2-1.7,5.3-5.1,5.3-8.8V174.9   c0-3.7-2-7.1-5.3-8.8l-107.5-57.9c-1.5-0.8-3.1-1.2-4.7-1.2s-3.3,0.4-4.7,1.2l-107.5,57.9c-3.2,1.7-5.3,5.1-5.3,8.8v221.6   C1014,400.2,1016,403.6,1019.2,405.3z" style="fill:#f5f5f5;"/>
    <g xmlns:xlink="http://www.w3.org/1999/xlink">
		<polygon points="1024,174.9 1131.5,117 1239,174.9 1239,396.5 1131.5,454.5 1024,396.5   " style="fill:#120c0a;"/>
		<polygon points="1070.5,222.9 1131.5,190.1 1192.5,222.9 1192.5,348.6 1131.5,381.4 1070.5,348.6   " style="fill:#1e1512;"/>
		<polygon points="1131.5,117 1131.5,190.1 1070.5,222.9 1024,174.9   " style="fill:#2b211c;"/>
		<polygon points="1070.5,222.9 1070.5,285.7 1024,285.7 1024,174.9   " style="fill:#19110e;"/>
		<polygon points="1070.5,285.7 1070.5,348.6 1024,396.5 1024,285.7   " style="fill:#30251f;"/>
		<polygon points="1131.5,381.4 1131.5,454.5 1024,396.5 1070.5,348.6   " style="fill:#0a0706;"/>
		<polygon points="1192.5,222.9 1239,174.9 1239,285.7 1192.5,285.7   " style="fill:#3a2e27;"/>
		<polygon points="1192.5,285.7 1192.5,348.6 1239,396.5 1239,285.7   " style="fill:#514238;"/>
		<polygon points="1192.5,348.6 1131.5,381.4 1131.5,454.5 1239,396.5   " style="fill:#271d18;"/>
	</g>
  </g>
</svg>
