<svg xmlns="http://www.w3.org/2000/svg" viewBox="0 0 380 398" width="380" height="398">
  <g transform="translate(-118 -121)">
    <path xmlns:xlink="http://www.w3.org/1999/xlink" d="M314.7,142.3c-2-2-4.5-2.9-7.1-2.9c-2.6,0-5.1,1-7.1,2.9L121,321.9c-3.9,3.9-3.9,10.2,0,14.1l179.6,179.6   c2,2,4.5,2.9,7.1,2.9c2.6,0,5.1-1,7.1-2.9l179.6-179.6c1.9-1.9,2.9-4.4,2.9-7.1c0-2.7-1.1-5.2-2.9-7.1L314.7,142.3z" style="fill:#290050;"/>
    <path xmlns:xlink="http://www.w3.org/1999/xlink" d="M314.7,124c-2-2-4.5-2.9-7.1-2.9c-2.6,0-5.1,1-7.1,2.9L121,303.6c-3.9,3.9-3.9,10.2,0,14.1l179.6,179.6   c2,2,4.5,2.9,7.1,2.9c2.6,0,5.1-1,7.1-2.9l179.6-179.6c1.9-1.9,2.9-4.4,2.9-7.1c0-2.7-1.1-5.2-2.9-7.1L314.7,124z" style="fill:#FFFFFF;"/>
    <g xmlns:xlink="http://www.w3.org/1999/xlink">
		
			<rect x="180.6" y="183.7" transform="matrix(-0.7071 -0.7071 0.7071 -0.7071 305.4659 747.8879)" width="254" height="254" style="fill:#E1425A;"/>
		
			<rect x="238.3" y="241.3" transform="matrix(-0.7071 -0.7071 0.7071 -0.7071 305.4661 747.888)" width="138.7" height="138.7" style="fill:#E14B68;"/>
		<polygon points="307.6,131.1 307.6,212.6 405.7,310.7 487.2,310.7   " style="fill:#F48B9D;"/>
		<polygon points="405.7,310.7 307.6,408.8 307.6,490.3 487.2,310.7   " style="fill:#EF4676;"/>
		<polygon points="209.5,310.7 128,310.7 307.6,490.3 307.6,408.8   " style="fill:#E52555;"/>
	</g>
  </g>
</svg>
