<svg xmlns="http://www.w3.org/2000/svg" viewBox="0 0 301 317" width="301" height="317">
  <g transform="translate(-157 -577)">
    <path xmlns:xlink="http://www.w3.org/1999/xlink" d="M415.4,649.4c-0.9-2.1-2.6-3.8-4.7-4.9l-96.3-48.1c-1.4-0.7-2.9-1.1-4.5-1.1c-1.4,0-2.8,0.3-4.2,0.9L208,641.1   c-2.1,1-3.8,2.6-4.8,4.7l-44.5,91.7c-1.2,2.6-1.3,5.5-0.2,8.2l42.4,102.7c1,2.5,3,4.4,5.5,5.5l95.2,38.6c1.2,0.5,2.5,0.7,3.8,0.7   c1.2,0,2.3-0.2,3.4-0.6l96.5-35.4c2.5-0.9,4.6-2.8,5.7-5.3l45.8-101.2c1.2-2.6,1.2-5.6,0-8.2L415.4,649.4z" style="fill:#290050;"/>
    <path xmlns:xlink="http://www.w3.org/1999/xlink" d="M415.4,631.1c-0.9-2.1-2.6-3.8-4.7-4.9l-96.3-48.1c-1.4-0.7-2.9-1.1-4.5-1.1c-1.4,0-2.8,0.3-4.2,0.9L208,622.8   c-2.1,1-3.8,2.6-4.8,4.7l-44.5,91.7c-1.2,2.6-1.3,5.5-0.2,8.2l42.4,102.7c1,2.5,3,4.4,5.5,5.5l95.2,38.6c1.2,0.5,2.5,0.7,3.8,0.7   c1.2,0,2.3-0.2,3.4-0.6l96.5-35.4c2.5-0.9,4.6-2.8,5.7-5.3l45.8-101.2c1.2-2.6,1.2-5.6,0-8.2L415.4,631.1z" style="fill:#FFFFFF;"/>
    <g xmlns:xlink="http://www.w3.org/1999/xlink">
		<polygon points="406.2,635.2 310,587 212.1,631.9 167.6,723.6 210.1,826.3 305.3,864.9 401.8,829.5 447.6,728.3       " style="fill:#C2E8F7;"/>
		<polygon points="359.3,678.4 308.8,653.2 257.6,676.7 234.3,724.7 256.5,778.5 306.4,798.7 356.9,780.2     380.9,727.2   " style="fill:#68C7F1;"/>
		<polygon points="310,587 308.8,653.2 359.3,678.4 406.2,635.2   " style="fill:#3F8ECD;"/>
		<polygon points="359.3,678.4 380.9,727.2 447.6,728.3 406.2,635.2   " style="fill:#57BCEB;"/>
		<polygon points="380.9,727.2 356.9,780.2 401.8,829.5 447.6,728.3   " style="fill:#88D5F3;"/>
		<polygon points="306.4,798.7 305.3,864.9 401.8,829.5 356.9,780.2   " style="fill:#399ED8;"/>
		<polygon points="306.4,798.7 305.3,864.9 210.1,826.3 256.5,778.5   " style="fill:#3E77BC;"/>
		<polygon points="234.3,724.7 167.6,723.6 210.1,826.3 256.5,778.5   " style="fill:#40A5DD;"/>
		<polygon points="257.6,676.7 212.1,631.9 167.6,723.6 234.3,724.7   " style="fill:#52C2EF;"/>
	</g>
  </g>
</svg>
